<svg xmlns="http://www.w3.org/2000/svg" viewBox="0 0 512 512">
  <g fill="none" stroke="white" stroke-width="20" stroke-linecap="round" stroke-linejoin="round">
    <!-- Left horn -->
    <path d="M214 162
             C160 112 84 142 86 214
             C88 282 150 306 198 290" />
    <path d="M126 210
             C126 178 152 156 184 158" />
    <!-- Right horn -->
    <path d="M298 162
             C352 112 428 142 426 214
             C424 282 362 306 314 290" />
    <path d="M386 210
             C386 178 360 156 328 158" />

    <!-- Head -->
    <path d="M192 210
             C160 242 146 284 146 328
             C146 408 194 458 256 458
             C318 458 366 408 366 328
             C366 284 352 242 320 210" />

    <!-- Cheeks -->
    <path d="M198 318
             C210 342 230 356 256 356
             C282 356 302 342 314 318" />

    <!-- Eyes (minimal) -->
    <path d="M224 286 L224 286" />
    <path d="M288 286 L288 286" />

    <!-- Nose -->
    <path d="M238 334
             C246 344 266 344 274 334" />

    <!-- Beard (stylized) -->
    <path d="M238 458
             C236 488 212 500 196 498" />
    <path d="M274 458
             C276 488 300 500 316 498" />
  </g>
</svg>
